<?xml version="1.0" encoding="UTF-8" standalone="no"?>
<!DOCTYPE svg PUBLIC "-//W3C//DTD SVG 1.1//EN"
 "http://www.w3.org/Graphics/SVG/1.1/DTD/svg11.dtd">
<!-- Generated by graphviz version 2.40.1 (20161225.0304)
 -->
<!-- Title: dependencies Pages: 1 -->
<svg width="610pt" height="211pt"
 viewBox="0.00 0.00 610.00 211.00" xmlns="http://www.w3.org/2000/svg" xmlns:xlink="http://www.w3.org/1999/xlink">
<g id="graph0" class="graph" transform="scale(1 1) rotate(0) translate(4 207)">
<title>dependencies</title>
<polygon fill="#ffffff" stroke="transparent" points="-4,4 -4,-207 606,-207 606,4 -4,4"/>
<text text-anchor="start" x="280.0091" y="-42.4" font-family="sans-serif" font-weight="bold" font-size="14.00" fill="#000000">Legend</text>
<polygon fill="#ffffb3" stroke="transparent" points="67,-10 67,-30 87,-30 87,-10 67,-10"/>
<text text-anchor="start" x="90.629" y="-15.4" font-family="sans-serif" font-size="14.00" fill="#000000"> &#160;Declarations</text>
<polygon fill="#8dd3c7" stroke="transparent" points="180,-10 180,-30 200,-30 200,-10 180,-10"/>
<text text-anchor="start" x="203.7251" y="-15.4" font-family="sans-serif" font-size="14.00" fill="#000000"> &#160;Module</text>
<polygon fill="#80b1d3" stroke="transparent" points="266,-10 266,-30 286,-30 286,-10 266,-10"/>
<text text-anchor="start" x="289.7812" y="-15.4" font-family="sans-serif" font-size="14.00" fill="#000000"> &#160;Bootstrap</text>
<polygon fill="#fdb462" stroke="transparent" points="363,-10 363,-30 383,-30 383,-10 363,-10"/>
<text text-anchor="start" x="386.6732" y="-15.4" font-family="sans-serif" font-size="14.00" fill="#000000"> &#160;Providers</text>
<polygon fill="#fb8072" stroke="transparent" points="459,-10 459,-30 479,-30 479,-10 459,-10"/>
<text text-anchor="start" x="482.7258" y="-15.4" font-family="sans-serif" font-size="14.00" fill="#000000"> &#160;Exports</text>
<g id="clust1" class="cluster">
<title>cluster_Tab1PageModule</title>
<polygon fill="none" stroke="#000000" stroke-dasharray="1,5" points="8,-70 8,-195 594,-195 594,-70 8,-70"/>
</g>
<g id="clust2" class="cluster">
<title>cluster_Tab1PageModule_declarations</title>
<polygon fill="none" stroke="#000000" points="16,-78 16,-130 586,-130 586,-78 16,-78"/>
</g>
<!-- ModalCategoriaPage -->
<g id="node1" class="node">
<title>ModalCategoriaPage</title>
<polygon fill="#ffffb3" stroke="#000000" points="578.1839,-122 443.8161,-122 443.8161,-86 578.1839,-86 578.1839,-122"/>
<text text-anchor="middle" x="511" y="-99.8" font-family="Times,serif" font-size="14.00" fill="#000000">ModalCategoriaPage</text>
</g>
<!-- Tab1PageModule -->
<g id="node5" class="node">
<title>Tab1PageModule</title>
<polygon fill="#8dd3c7" stroke="#000000" points="327.5298,-187 324.5298,-191 303.5298,-191 300.5298,-187 212.4702,-187 212.4702,-151 327.5298,-151 327.5298,-187"/>
<text text-anchor="middle" x="270" y="-164.8" font-family="Times,serif" font-size="14.00" fill="#000000">Tab1PageModule</text>
</g>
<!-- ModalCategoriaPage&#45;&gt;Tab1PageModule -->
<g id="edge1" class="edge">
<title>ModalCategoriaPage&#45;&gt;Tab1PageModule</title>
<path fill="none" stroke="#000000" d="M511,-122.1061C511,-141.3391 511,-169 511,-169 511,-169 337.7255,-169 337.7255,-169"/>
<polygon fill="#000000" stroke="#000000" points="337.7255,-165.5001 327.7255,-169 337.7255,-172.5001 337.7255,-165.5001"/>
</g>
<!-- ModalParticipantePage -->
<g id="node2" class="node">
<title>ModalParticipantePage</title>
<polygon fill="#ffffb3" stroke="#000000" points="426.1261,-122 279.8739,-122 279.8739,-86 426.1261,-86 426.1261,-122"/>
<text text-anchor="middle" x="353" y="-99.8" font-family="Times,serif" font-size="14.00" fill="#000000">ModalParticipantePage</text>
</g>
<!-- ModalParticipantePage&#45;&gt;Tab1PageModule -->
<g id="edge2" class="edge">
<title>ModalParticipantePage&#45;&gt;Tab1PageModule</title>
<path fill="none" stroke="#000000" d="M303.7258,-122.1061C303.7258,-122.1061 303.7258,-140.991 303.7258,-140.991"/>
<polygon fill="#000000" stroke="#000000" points="300.2259,-140.9909 303.7258,-150.991 307.2259,-140.991 300.2259,-140.9909"/>
</g>
<!-- PuntosParticipantePage -->
<g id="node3" class="node">
<title>PuntosParticipantePage</title>
<polygon fill="#ffffb3" stroke="#000000" points="262.1937,-122 113.8063,-122 113.8063,-86 262.1937,-86 262.1937,-122"/>
<text text-anchor="middle" x="188" y="-99.8" font-family="Times,serif" font-size="14.00" fill="#000000">PuntosParticipantePage</text>
</g>
<!-- PuntosParticipantePage&#45;&gt;Tab1PageModule -->
<g id="edge3" class="edge">
<title>PuntosParticipantePage&#45;&gt;Tab1PageModule</title>
<path fill="none" stroke="#000000" d="M237.1662,-122.1061C237.1662,-122.1061 237.1662,-140.991 237.1662,-140.991"/>
<polygon fill="#000000" stroke="#000000" points="233.6663,-140.9909 237.1662,-150.991 240.6663,-140.991 233.6663,-140.9909"/>
</g>
<!-- Tab1Page -->
<g id="node4" class="node">
<title>Tab1Page</title>
<polygon fill="#ffffb3" stroke="#000000" points="95.979,-122 24.021,-122 24.021,-86 95.979,-86 95.979,-122"/>
<text text-anchor="middle" x="60" y="-99.8" font-family="Times,serif" font-size="14.00" fill="#000000">Tab1Page</text>
</g>
<!-- Tab1Page&#45;&gt;Tab1PageModule -->
<g id="edge4" class="edge">
<title>Tab1Page&#45;&gt;Tab1PageModule</title>
<path fill="none" stroke="#000000" d="M60,-122.1061C60,-141.3391 60,-169 60,-169 60,-169 202.3388,-169 202.3388,-169"/>
<polygon fill="#000000" stroke="#000000" points="202.3388,-172.5001 212.3388,-169 202.3388,-165.5001 202.3388,-172.5001"/>
</g>
</g>
</svg>
