<?xml version="1.0" encoding="UTF-8" standalone="no"?>
<!DOCTYPE svg PUBLIC "-//W3C//DTD SVG 1.1//EN"
 "http://www.w3.org/Graphics/SVG/1.1/DTD/svg11.dtd">
<!-- Generated by graphviz version 2.40.1 (20161225.0304)
 -->
<!-- Title: dependencies Pages: 1 -->
<svg width="504pt" height="211pt"
 viewBox="0.00 0.00 504.00 211.00" xmlns="http://www.w3.org/2000/svg" xmlns:xlink="http://www.w3.org/1999/xlink">
<g id="graph0" class="graph" transform="scale(1 1) rotate(0) translate(4 207)">
<title>dependencies</title>
<polygon fill="#ffffff" stroke="transparent" points="-4,4 -4,-207 500,-207 500,4 -4,4"/>
<text text-anchor="start" x="227.0091" y="-42.4" font-family="sans-serif" font-weight="bold" font-size="14.00" fill="#000000">Legend</text>
<polygon fill="#ffffb3" stroke="transparent" points="14,-10 14,-30 34,-30 34,-10 14,-10"/>
<text text-anchor="start" x="37.629" y="-15.4" font-family="sans-serif" font-size="14.00" fill="#000000"> &#160;Declarations</text>
<polygon fill="#8dd3c7" stroke="transparent" points="127,-10 127,-30 147,-30 147,-10 127,-10"/>
<text text-anchor="start" x="150.7251" y="-15.4" font-family="sans-serif" font-size="14.00" fill="#000000"> &#160;Module</text>
<polygon fill="#80b1d3" stroke="transparent" points="213,-10 213,-30 233,-30 233,-10 213,-10"/>
<text text-anchor="start" x="236.7812" y="-15.4" font-family="sans-serif" font-size="14.00" fill="#000000"> &#160;Bootstrap</text>
<polygon fill="#fdb462" stroke="transparent" points="310,-10 310,-30 330,-30 330,-10 310,-10"/>
<text text-anchor="start" x="333.6732" y="-15.4" font-family="sans-serif" font-size="14.00" fill="#000000"> &#160;Providers</text>
<polygon fill="#fb8072" stroke="transparent" points="406,-10 406,-30 426,-30 426,-10 406,-10"/>
<text text-anchor="start" x="429.7258" y="-15.4" font-family="sans-serif" font-size="14.00" fill="#000000"> &#160;Exports</text>
<g id="clust1" class="cluster">
<title>cluster_ModalParticipantePageModule</title>
<polygon fill="none" stroke="#000000" stroke-dasharray="1,5" points="76,-70 76,-195 420,-195 420,-70 76,-70"/>
</g>
<g id="clust2" class="cluster">
<title>cluster_ModalParticipantePageModule_declarations</title>
<polygon fill="none" stroke="#000000" points="84,-78 84,-130 412,-130 412,-78 84,-78"/>
</g>
<!-- ModalParticipantePage -->
<g id="node1" class="node">
<title>ModalParticipantePage</title>
<polygon fill="#ffffb3" stroke="#000000" points="404.1261,-122 257.8739,-122 257.8739,-86 404.1261,-86 404.1261,-122"/>
<text text-anchor="middle" x="331" y="-99.8" font-family="Times,serif" font-size="14.00" fill="#000000">ModalParticipantePage</text>
</g>
<!-- ModalParticipantePageModule -->
<g id="node3" class="node">
<title>ModalParticipantePageModule</title>
<polygon fill="#8dd3c7" stroke="#000000" points="343.1755,-187 340.1755,-191 319.1755,-191 316.1755,-187 152.8245,-187 152.8245,-151 343.1755,-151 343.1755,-187"/>
<text text-anchor="middle" x="248" y="-164.8" font-family="Times,serif" font-size="14.00" fill="#000000">ModalParticipantePageModule</text>
</g>
<!-- ModalParticipantePage&#45;&gt;ModalParticipantePageModule -->
<g id="edge1" class="edge">
<title>ModalParticipantePage&#45;&gt;ModalParticipantePageModule</title>
<path fill="none" stroke="#000000" d="M300.3875,-122.1061C300.3875,-122.1061 300.3875,-140.991 300.3875,-140.991"/>
<polygon fill="#000000" stroke="#000000" points="296.8875,-140.9909 300.3875,-150.991 303.8875,-140.991 296.8875,-140.9909"/>
</g>
<!-- PuntosParticipantePage -->
<g id="node2" class="node">
<title>PuntosParticipantePage</title>
<polygon fill="#ffffb3" stroke="#000000" points="240.1937,-122 91.8063,-122 91.8063,-86 240.1937,-86 240.1937,-122"/>
<text text-anchor="middle" x="166" y="-99.8" font-family="Times,serif" font-size="14.00" fill="#000000">PuntosParticipantePage</text>
</g>
<!-- PuntosParticipantePage&#45;&gt;ModalParticipantePageModule -->
<g id="edge2" class="edge">
<title>PuntosParticipantePage&#45;&gt;ModalParticipantePageModule</title>
<path fill="none" stroke="#000000" d="M196.5046,-122.1061C196.5046,-122.1061 196.5046,-140.991 196.5046,-140.991"/>
<polygon fill="#000000" stroke="#000000" points="193.0046,-140.9909 196.5046,-150.991 200.0046,-140.991 193.0046,-140.9909"/>
</g>
</g>
</svg>
